# xmcd CD database file
#
# Track frame offsets:
#	150
#	14549
#	40048
#	51521
#	73270
#	94945
#	115493
#	135593
#	160267
#	186742
#	219216
#	230615
#	245014
#	267288
#	290912
#
# Disc length: 4124 seconds
#
# Revision: 1
# Processed by: cddbd v1.5.2PL0 Copyright (c) Steve Scherf et al.
# Submitted via: CDex 1.51
#
DISCID=f0101a0f
DTITLE=Jazz Collection - Volume 2
DYEAR=2002
DGENRE=Jazz
TTITLE0=Fortin-Léveillé's Guitar Duo - Une Pour Tous
TTITLE1=Chris Mason-Battley Group - Falling Rain
TTITLE2=Hr-Swing Music Collection - Dedication To Glenn Miller
TTITLE3=Rick Latham And The Groove - Back It Up
TTITLE4=Glenn DeLaune - Shades Of Smooth
TTITLE5=Ted Vieira - Takin' A Break
TTITLE6=Steve Laury - Cuttin' Up
TTITLE7=Deep Sky Divers - Stride For Stride 2001
TTITLE8=Mother Funk Conspiracy - Heavy Junk
TTITLE9=Isaiah Stewart - No Chance
TTITLE10=The D's 3 - Boogie Woogie Bugle Boy
TTITLE11=The Doctor - Take A Break (Beat) !
TTITLE12=Cat Tanzu - Sunrider
TTITLE13=Diana Krall - Jimmie
TTITLE14=Minoru Amino - Triple Fuse
EXTD=YEAR: 2002
EXTT0=
EXTT1=
EXTT2=
EXTT3=
EXTT4=
EXTT5=
EXTT6=
EXTT7=
EXTT8=
EXTT9=
EXTT10=
EXTT11=
EXTT12=
EXTT13=
EXTT14=
PLAYORDER=
